<mxfile host="app.diagrams.net" modified="2023-06-19T09:33:16.012Z" agent="Mozilla/5.0 (X11; Linux x86_64) AppleWebKit/537.36 (KHTML, like Gecko) Chrome/114.0.0.0 Safari/537.36" etag="uocInrUo2lwwmPYjF1-p" version="21.3.8" type="github" pages="2">
  <diagram name="1-定义Attribute&amp;Tuple" id="jgY8s5olxvLONksZ0MlG">
    <mxGraphModel dx="794" dy="527" grid="1" gridSize="10" guides="1" tooltips="1" connect="1" arrows="1" fold="1" page="1" pageScale="1" pageWidth="827" pageHeight="1169" math="0" shadow="0">
      <root>
        <mxCell id="0" />
        <mxCell id="1" parent="0" />
        <mxCell id="Ki7URjPbcWeHqnx6uOKX-1" value="Assets" style="childLayout=tableLayout;recursiveResize=0;strokeColor=#98bf21;fillColor=#A7C942;shadow=1;" vertex="1" parent="1">
          <mxGeometry x="270" y="200" width="280" height="160" as="geometry" />
        </mxCell>
        <mxCell id="Ki7URjPbcWeHqnx6uOKX-2" style="shape=tableRow;horizontal=0;startSize=0;swimlaneHead=0;swimlaneBody=0;top=0;left=0;bottom=0;right=0;dropTarget=0;collapsible=0;recursiveResize=0;expand=0;fontStyle=0;strokeColor=inherit;fillColor=#ffffff;" vertex="1" parent="Ki7URjPbcWeHqnx6uOKX-1">
          <mxGeometry width="280" height="33" as="geometry" />
        </mxCell>
        <mxCell id="Ki7URjPbcWeHqnx6uOKX-3" value="&lt;p&gt;Name&lt;/p&gt;" style="connectable=0;recursiveResize=0;strokeColor=inherit;fillColor=#A7C942;align=center;fontStyle=1;fontColor=#FFFFFF;html=1;" vertex="1" parent="Ki7URjPbcWeHqnx6uOKX-2">
          <mxGeometry width="93" height="33" as="geometry">
            <mxRectangle width="93" height="33" as="alternateBounds" />
          </mxGeometry>
        </mxCell>
        <mxCell id="Ki7URjPbcWeHqnx6uOKX-4" value="Age" style="connectable=0;recursiveResize=0;strokeColor=inherit;fillColor=#A7C942;align=center;fontStyle=1;fontColor=#FFFFFF;html=1;" vertex="1" parent="Ki7URjPbcWeHqnx6uOKX-2">
          <mxGeometry x="93" width="94" height="33" as="geometry">
            <mxRectangle width="94" height="33" as="alternateBounds" />
          </mxGeometry>
        </mxCell>
        <mxCell id="Ki7URjPbcWeHqnx6uOKX-5" value="Height" style="connectable=0;recursiveResize=0;strokeColor=inherit;fillColor=#A7C942;align=center;fontStyle=1;fontColor=#FFFFFF;html=1;" vertex="1" parent="Ki7URjPbcWeHqnx6uOKX-2">
          <mxGeometry x="187" width="93" height="33" as="geometry">
            <mxRectangle width="93" height="33" as="alternateBounds" />
          </mxGeometry>
        </mxCell>
        <mxCell id="Ki7URjPbcWeHqnx6uOKX-6" value="" style="shape=tableRow;horizontal=0;startSize=0;swimlaneHead=0;swimlaneBody=0;top=0;left=0;bottom=0;right=0;dropTarget=0;collapsible=0;recursiveResize=0;expand=0;fontStyle=0;strokeColor=inherit;fillColor=#ffffff;" vertex="1" parent="Ki7URjPbcWeHqnx6uOKX-1">
          <mxGeometry y="33" width="280" height="32" as="geometry" />
        </mxCell>
        <mxCell id="Ki7URjPbcWeHqnx6uOKX-7" value="张三&lt;br&gt;" style="connectable=0;recursiveResize=0;strokeColor=inherit;fillColor=inherit;align=center;whiteSpace=wrap;html=1;shadow=0;glass=0;rounded=0;labelBorderColor=none;" vertex="1" parent="Ki7URjPbcWeHqnx6uOKX-6">
          <mxGeometry width="93" height="32" as="geometry">
            <mxRectangle width="93" height="32" as="alternateBounds" />
          </mxGeometry>
        </mxCell>
        <mxCell id="Ki7URjPbcWeHqnx6uOKX-8" value="18" style="connectable=0;recursiveResize=0;strokeColor=inherit;fillColor=inherit;align=center;whiteSpace=wrap;html=1;shadow=0;glass=0;rounded=0;labelBorderColor=none;" vertex="1" parent="Ki7URjPbcWeHqnx6uOKX-6">
          <mxGeometry x="93" width="94" height="32" as="geometry">
            <mxRectangle width="94" height="32" as="alternateBounds" />
          </mxGeometry>
        </mxCell>
        <mxCell id="Ki7URjPbcWeHqnx6uOKX-9" value="170" style="connectable=0;recursiveResize=0;strokeColor=inherit;fillColor=inherit;align=center;whiteSpace=wrap;html=1;shadow=0;glass=0;rounded=0;labelBorderColor=none;" vertex="1" parent="Ki7URjPbcWeHqnx6uOKX-6">
          <mxGeometry x="187" width="93" height="32" as="geometry">
            <mxRectangle width="93" height="32" as="alternateBounds" />
          </mxGeometry>
        </mxCell>
        <mxCell id="Ki7URjPbcWeHqnx6uOKX-10" value="" style="shape=tableRow;horizontal=0;startSize=0;swimlaneHead=0;swimlaneBody=0;top=0;left=0;bottom=0;right=0;dropTarget=0;collapsible=0;recursiveResize=0;expand=0;fontStyle=1;strokeColor=inherit;fillColor=#EAF2D3;" vertex="1" parent="Ki7URjPbcWeHqnx6uOKX-1">
          <mxGeometry y="65" width="280" height="31" as="geometry" />
        </mxCell>
        <mxCell id="Ki7URjPbcWeHqnx6uOKX-11" value="李四" style="connectable=0;recursiveResize=0;strokeColor=inherit;fillColor=inherit;whiteSpace=wrap;html=1;" vertex="1" parent="Ki7URjPbcWeHqnx6uOKX-10">
          <mxGeometry width="93" height="31" as="geometry">
            <mxRectangle width="93" height="31" as="alternateBounds" />
          </mxGeometry>
        </mxCell>
        <mxCell id="Ki7URjPbcWeHqnx6uOKX-12" value="19" style="connectable=0;recursiveResize=0;strokeColor=inherit;fillColor=inherit;whiteSpace=wrap;html=1;" vertex="1" parent="Ki7URjPbcWeHqnx6uOKX-10">
          <mxGeometry x="93" width="94" height="31" as="geometry">
            <mxRectangle width="94" height="31" as="alternateBounds" />
          </mxGeometry>
        </mxCell>
        <mxCell id="Ki7URjPbcWeHqnx6uOKX-13" value="165" style="connectable=0;recursiveResize=0;strokeColor=inherit;fillColor=inherit;whiteSpace=wrap;html=1;" vertex="1" parent="Ki7URjPbcWeHqnx6uOKX-10">
          <mxGeometry x="187" width="93" height="31" as="geometry">
            <mxRectangle width="93" height="31" as="alternateBounds" />
          </mxGeometry>
        </mxCell>
        <mxCell id="Ki7URjPbcWeHqnx6uOKX-14" value="" style="shape=tableRow;horizontal=0;startSize=0;swimlaneHead=0;swimlaneBody=0;top=0;left=0;bottom=0;right=0;dropTarget=0;collapsible=0;recursiveResize=0;expand=0;fontStyle=0;strokeColor=inherit;fillColor=#ffffff;" vertex="1" parent="Ki7URjPbcWeHqnx6uOKX-1">
          <mxGeometry y="96" width="280" height="33" as="geometry" />
        </mxCell>
        <mxCell id="Ki7URjPbcWeHqnx6uOKX-15" value="王五" style="connectable=0;recursiveResize=0;strokeColor=inherit;fillColor=inherit;fontStyle=0;align=center;whiteSpace=wrap;html=1;" vertex="1" parent="Ki7URjPbcWeHqnx6uOKX-14">
          <mxGeometry width="93" height="33" as="geometry">
            <mxRectangle width="93" height="33" as="alternateBounds" />
          </mxGeometry>
        </mxCell>
        <mxCell id="Ki7URjPbcWeHqnx6uOKX-16" value="20" style="connectable=0;recursiveResize=0;strokeColor=inherit;fillColor=inherit;fontStyle=0;align=center;whiteSpace=wrap;html=1;" vertex="1" parent="Ki7URjPbcWeHqnx6uOKX-14">
          <mxGeometry x="93" width="94" height="33" as="geometry">
            <mxRectangle width="94" height="33" as="alternateBounds" />
          </mxGeometry>
        </mxCell>
        <mxCell id="Ki7URjPbcWeHqnx6uOKX-17" value="173" style="connectable=0;recursiveResize=0;strokeColor=inherit;fillColor=inherit;fontStyle=0;align=center;whiteSpace=wrap;html=1;" vertex="1" parent="Ki7URjPbcWeHqnx6uOKX-14">
          <mxGeometry x="187" width="93" height="33" as="geometry">
            <mxRectangle width="93" height="33" as="alternateBounds" />
          </mxGeometry>
        </mxCell>
        <mxCell id="Ki7URjPbcWeHqnx6uOKX-18" value="" style="shape=tableRow;horizontal=0;startSize=0;swimlaneHead=0;swimlaneBody=0;top=0;left=0;bottom=0;right=0;dropTarget=0;collapsible=0;recursiveResize=0;expand=0;fontStyle=1;strokeColor=inherit;fillColor=#EAF2D3;" vertex="1" parent="Ki7URjPbcWeHqnx6uOKX-1">
          <mxGeometry y="129" width="280" height="31" as="geometry" />
        </mxCell>
        <mxCell id="Ki7URjPbcWeHqnx6uOKX-19" value="Trump" style="connectable=0;recursiveResize=0;strokeColor=inherit;fillColor=inherit;whiteSpace=wrap;html=1;" vertex="1" parent="Ki7URjPbcWeHqnx6uOKX-18">
          <mxGeometry width="93" height="31" as="geometry">
            <mxRectangle width="93" height="31" as="alternateBounds" />
          </mxGeometry>
        </mxCell>
        <mxCell id="Ki7URjPbcWeHqnx6uOKX-20" value="21" style="connectable=0;recursiveResize=0;strokeColor=inherit;fillColor=inherit;whiteSpace=wrap;html=1;" vertex="1" parent="Ki7URjPbcWeHqnx6uOKX-18">
          <mxGeometry x="93" width="94" height="31" as="geometry">
            <mxRectangle width="94" height="31" as="alternateBounds" />
          </mxGeometry>
        </mxCell>
        <mxCell id="Ki7URjPbcWeHqnx6uOKX-21" value="173" style="connectable=0;recursiveResize=0;strokeColor=inherit;fillColor=inherit;whiteSpace=wrap;html=1;" vertex="1" parent="Ki7URjPbcWeHqnx6uOKX-18">
          <mxGeometry x="187" width="93" height="31" as="geometry">
            <mxRectangle width="93" height="31" as="alternateBounds" />
          </mxGeometry>
        </mxCell>
        <mxCell id="Ki7URjPbcWeHqnx6uOKX-23" value="" style="endArrow=classic;html=1;rounded=0;exitX=0.25;exitY=0;exitDx=0;exitDy=0;entryX=0.5;entryY=1;entryDx=0;entryDy=0;" edge="1" parent="1" source="Ki7URjPbcWeHqnx6uOKX-2" target="Ki7URjPbcWeHqnx6uOKX-24">
          <mxGeometry width="50" height="50" relative="1" as="geometry">
            <mxPoint x="380" y="290" as="sourcePoint" />
            <mxPoint x="400" y="120" as="targetPoint" />
          </mxGeometry>
        </mxCell>
        <mxCell id="Ki7URjPbcWeHqnx6uOKX-24" value="Attribute" style="rounded=0;whiteSpace=wrap;html=1;fillColor=#f8cecc;strokeColor=#b85450;" vertex="1" parent="1">
          <mxGeometry x="365" y="80" width="90" height="40" as="geometry" />
        </mxCell>
        <mxCell id="Ki7URjPbcWeHqnx6uOKX-25" style="edgeStyle=orthogonalEdgeStyle;rounded=0;orthogonalLoop=1;jettySize=auto;html=1;exitX=0.5;exitY=0;exitDx=0;exitDy=0;entryX=0.5;entryY=1;entryDx=0;entryDy=0;" edge="1" parent="1" source="Ki7URjPbcWeHqnx6uOKX-2" target="Ki7URjPbcWeHqnx6uOKX-24">
          <mxGeometry relative="1" as="geometry" />
        </mxCell>
        <mxCell id="Ki7URjPbcWeHqnx6uOKX-27" value="" style="endArrow=classic;html=1;rounded=0;exitX=0.75;exitY=0;exitDx=0;exitDy=0;entryX=0.5;entryY=1;entryDx=0;entryDy=0;" edge="1" parent="1" source="Ki7URjPbcWeHqnx6uOKX-2" target="Ki7URjPbcWeHqnx6uOKX-24">
          <mxGeometry width="50" height="50" relative="1" as="geometry">
            <mxPoint x="350" y="210" as="sourcePoint" />
            <mxPoint x="420" y="110" as="targetPoint" />
          </mxGeometry>
        </mxCell>
        <mxCell id="Ki7URjPbcWeHqnx6uOKX-31" value="Tuple" style="rounded=0;whiteSpace=wrap;html=1;fillColor=#f8cecc;strokeColor=#b85450;" vertex="1" parent="1">
          <mxGeometry x="640" y="240" width="90" height="40" as="geometry" />
        </mxCell>
        <mxCell id="Ki7URjPbcWeHqnx6uOKX-32" value="" style="endArrow=classic;html=1;rounded=0;exitX=1;exitY=0.5;exitDx=0;exitDy=0;entryX=0;entryY=0.5;entryDx=0;entryDy=0;" edge="1" parent="1" source="Ki7URjPbcWeHqnx6uOKX-33" target="Ki7URjPbcWeHqnx6uOKX-31">
          <mxGeometry width="50" height="50" relative="1" as="geometry">
            <mxPoint x="380" y="290" as="sourcePoint" />
            <mxPoint x="430" y="240" as="targetPoint" />
          </mxGeometry>
        </mxCell>
        <mxCell id="Ki7URjPbcWeHqnx6uOKX-33" value="" style="rounded=0;html=1;labelBackgroundColor=none;textOpacity=0;fontColor=none;noLabel=1;fillColor=none;" vertex="1" parent="1">
          <mxGeometry x="282" y="240" width="256" height="20" as="geometry" />
        </mxCell>
        <mxCell id="Ki7URjPbcWeHqnx6uOKX-36" value="" style="rounded=0;html=1;labelBackgroundColor=none;textOpacity=0;fontColor=none;noLabel=1;fillColor=none;" vertex="1" parent="1">
          <mxGeometry x="282" y="270" width="256" height="20" as="geometry" />
        </mxCell>
        <mxCell id="Ki7URjPbcWeHqnx6uOKX-38" value="" style="endArrow=classic;html=1;rounded=0;exitX=1;exitY=0.5;exitDx=0;exitDy=0;entryX=0;entryY=0.5;entryDx=0;entryDy=0;" edge="1" parent="1" source="Ki7URjPbcWeHqnx6uOKX-36" target="Ki7URjPbcWeHqnx6uOKX-31">
          <mxGeometry width="50" height="50" relative="1" as="geometry">
            <mxPoint x="548" y="260" as="sourcePoint" />
            <mxPoint x="670" y="300" as="targetPoint" />
          </mxGeometry>
        </mxCell>
      </root>
    </mxGraphModel>
  </diagram>
  <diagram id="Mp4Tw2Tvwu0XvsTg8l-N" name="1-关系-键们">
    <mxGraphModel dx="794" dy="527" grid="1" gridSize="10" guides="1" tooltips="1" connect="1" arrows="1" fold="1" page="1" pageScale="1" pageWidth="827" pageHeight="1169" math="0" shadow="0">
      <root>
        <mxCell id="0" />
        <mxCell id="1" parent="0" />
        <mxCell id="JCNZxlJOjvZb-kWBRo13-5" style="edgeStyle=orthogonalEdgeStyle;rounded=0;orthogonalLoop=1;jettySize=auto;html=1;exitX=1;exitY=0.5;exitDx=0;exitDy=0;entryX=0;entryY=0.5;entryDx=0;entryDy=0;" edge="1" parent="1" source="JCNZxlJOjvZb-kWBRo13-1" target="JCNZxlJOjvZb-kWBRo13-2">
          <mxGeometry relative="1" as="geometry" />
        </mxCell>
        <mxCell id="JCNZxlJOjvZb-kWBRo13-1" value="&lt;font style=&quot;font-size: 19px;&quot;&gt;超键&lt;/font&gt;" style="rounded=0;whiteSpace=wrap;html=1;fillColor=#ffe6cc;strokeColor=#d79b00;" vertex="1" parent="1">
          <mxGeometry x="140" y="140" width="100" height="50" as="geometry" />
        </mxCell>
        <mxCell id="JCNZxlJOjvZb-kWBRo13-2" value="&lt;span style=&quot;font-size: 19px;&quot;&gt;键&lt;/span&gt;" style="rounded=0;whiteSpace=wrap;html=1;fillColor=#d5e8d4;strokeColor=#82b366;" vertex="1" parent="1">
          <mxGeometry x="360" y="140" width="100" height="50" as="geometry" />
        </mxCell>
        <mxCell id="JCNZxlJOjvZb-kWBRo13-3" value="&lt;span style=&quot;font-size: 19px;&quot;&gt;主键&lt;/span&gt;" style="rounded=0;whiteSpace=wrap;html=1;fillColor=#ffe6cc;strokeColor=#d79b00;" vertex="1" parent="1">
          <mxGeometry x="490" y="70" width="100" height="50" as="geometry" />
        </mxCell>
        <mxCell id="JCNZxlJOjvZb-kWBRo13-11" style="edgeStyle=orthogonalEdgeStyle;rounded=0;orthogonalLoop=1;jettySize=auto;html=1;exitX=0.5;exitY=0;exitDx=0;exitDy=0;entryX=0.5;entryY=1;entryDx=0;entryDy=0;" edge="1" parent="1" source="JCNZxlJOjvZb-kWBRo13-4" target="JCNZxlJOjvZb-kWBRo13-3">
          <mxGeometry relative="1" as="geometry" />
        </mxCell>
        <mxCell id="JCNZxlJOjvZb-kWBRo13-12" value="主键是特殊的候选键" style="edgeLabel;html=1;align=center;verticalAlign=middle;resizable=0;points=[];" vertex="1" connectable="0" parent="JCNZxlJOjvZb-kWBRo13-11">
          <mxGeometry x="-0.2625" relative="1" as="geometry">
            <mxPoint x="60" y="-5" as="offset" />
          </mxGeometry>
        </mxCell>
        <mxCell id="JCNZxlJOjvZb-kWBRo13-4" value="&lt;span style=&quot;font-size: 19px;&quot;&gt;候选键&lt;br&gt;&lt;/span&gt;" style="rounded=0;whiteSpace=wrap;html=1;fillColor=#ffe6cc;strokeColor=#d79b00;" vertex="1" parent="1">
          <mxGeometry x="490" y="200" width="100" height="50" as="geometry" />
        </mxCell>
        <mxCell id="JCNZxlJOjvZb-kWBRo13-6" value="" style="shape=curlyBracket;whiteSpace=wrap;html=1;rounded=1;labelPosition=left;verticalLabelPosition=middle;align=right;verticalAlign=middle;" vertex="1" parent="1">
          <mxGeometry x="460" y="90" width="30" height="145" as="geometry" />
        </mxCell>
      </root>
    </mxGraphModel>
  </diagram>
</mxfile>
